# xmcd
#
# Track frame offsets: 
#        150
#        22980
#        45287
#
# Disc length: 905 seconds
#
# Revision: 1
# Processed by: cddbd v1.5.2PL0 Copyright (c) Steve Scherf et al.
# Submitted via: ExactAudioCopy v1.3
#
DISCID=14038703
DTITLE=忍者 - 君に夢中
DYEAR=1995
DGENRE=Pop
TTITLE0=君に夢中
TTITLE1=YAMATOネシアから愛を込めて
TTITLE2=君に夢中 (オリジナル・カラオケ)
EXTD=YEAR: 95/03/01
EXTT0=
EXTT1=
EXTT2=
PLAYORDER=
